HIERARCHY
ROOT Hips
{
    OFFSET 0.000000 0.000000 0.000000
    CHANNELS 6 Xposition Yposition Zposition Zrotation Xrotation Yrotation
    JOINT Spine
    {
        OFFSET -0.000000 7.236184 0.000000
        CHANNELS 3 Zrotation Xrotation Yrotation
        JOINT Spine1
        {
            OFFSET -0.000000 20.420147 0.000000
            CHANNELS 3 Zrotation Xrotation Yrotation
            JOINT Neck
            {
                OFFSET -0.000000 20.336288 1.848754
                CHANNELS 3 Zrotation Xrotation Yrotation
                JOINT Head
                {
                    OFFSET -0.000000 12.354461 -1.764923
                    CHANNELS 3 Zrotation Xrotation Yrotation
                    End Site
                    {
                        OFFSET -0.000000 22.061537 0.000000
                    }
                }
            }
            JOINT LeftShoulder
            {
                OFFSET 3.573296 18.396038 -0.314103
                CHANNELS 3 Zrotation Xrotation Yrotation
                JOINT LeftArm
                {
                    OFFSET 10.880760 0.000000 0.000000
                    CHANNELS 3 Zrotation Xrotation Yrotation
                    JOINT LeftForeArm
                    {
                        OFFSET 27.185530 0.000000 0.000000
                        CHANNELS 3 Zrotation Xrotation Yrotation
                        JOINT LeftHand
                        {
                            OFFSET 27.825975 0.000000 0.000000
                            CHANNELS 3 Zrotation Xrotation Yrotation
                            End Site
                            {
                                OFFSET 13.236923 0.000000 0.000000
                            }
                        }
                    }
                }
            }
            JOINT RightShoulder
            {
                OFFSET -3.474926 18.396038 -0.314103
                CHANNELS 3 Zrotation Xrotation Yrotation
                JOINT RightArm
                {
                    OFFSET -10.880760 0.000000 0.000000
                    CHANNELS 3 Zrotation Xrotation Yrotation
                    JOINT RightForeArm
                    {
                        OFFSET -27.185530 0.000000 0.000000
                        CHANNELS 3 Zrotation Xrotation Yrotation
                        JOINT RightHand
                        {
                            OFFSET -27.825975 0.000000 0.000000
                            CHANNELS 3 Zrotation Xrotation Yrotation
                            End Site
                            {
                                OFFSET -13.236923 0.000000 0.000000
                            }
                        }
                    }
                }
            }
        }
    }
    JOINT LeftUpLeg
    {
        OFFSET 8.824615 0.000000 0.000000
        CHANNELS 3 Zrotation Xrotation Yrotation
        JOINT LeftLeg
        {
            OFFSET -0.000000 -35.111282 0.000000
            CHANNELS 3 Zrotation Xrotation Yrotation
            JOINT LeftFoot
            {
                OFFSET -0.000000 -42.324711 0.000000
                CHANNELS 3 Zrotation Xrotation Yrotation
                JOINT LeftToeBase
                {
                    OFFSET -0.000000 -5.735999 13.236923
                    CHANNELS 3 Zrotation Xrotation Yrotation
                    End Site
                    {
                        OFFSET -0.000000 0.000000 3.529846
                    }
                }
            }
        }
    }
    JOINT RightUpLeg
    {
        OFFSET -8.824615 0.000000 0.000000
        CHANNELS 3 Zrotation Xrotation Yrotation
        JOINT RightLeg
        {
            OFFSET -0.000000 -35.111282 0.000000
            CHANNELS 3 Zrotation Xrotation Yrotation
            JOINT RightFoot
            {
                OFFSET -0.000000 -42.324711 0.000000
                CHANNELS 3 Zrotation Xrotation Yrotation
                JOINT RightToeBase
                {
                    OFFSET -0.000000 -5.735999 13.236923
                    CHANNELS 3 Zrotation Xrotation Yrotation
                    End Site
                    {
                        OFFSET -0.000000 0.000000 3.529846
                    }
                }
            }
        }
    }
}
MOTION
Frames:    13
Frame Time:    0.008333
-0.295042    81.049118    96.994072    -0.736839    -4.930654    -174.834244    -1.209801    -15.080037    0.366706    0.322672    8.212930    0.503816    2.354400    3.689848    -1.033956    8.972545    -11.842360    0.836127    0.885013    18.283037    -3.431576    -42.175903    47.652626    -42.291748    -2.399552    -5.375023    -17.738134    18.550961    -5.163834    3.590519    6.526681    19.900986    -2.919868    37.255909    46.011524    42.198193    0.999042    -6.375788    17.188524    -14.561692    -5.950326    -4.528951    3.656072    -5.554495    1.250496    -2.307338    9.235207    -1.471698    -1.410188    -7.553373    -8.383321    0.063153    0.234978    -0.069973    -4.064588    -0.594183    2.872472    4.359631    2.936533    4.652380    -2.845037    -6.610432    -13.918377    -0.450078    0.661818    0.486355    
-0.367297    81.047501    96.972816    -0.717223    -4.943324    -174.846512    -1.210942    -15.081261    0.371256    0.323657    8.228901    0.508313    2.363458    3.685580    -1.020949    9.016707    -12.197116    0.886245    0.880292    18.275574    -3.435919    -42.166454    47.648460    -42.294071    -2.411331    -5.386848    -17.743196    18.461384    -5.187569    3.546636    6.522247    19.902246    -2.914930    37.245033    46.011486    42.212986    0.993346    -6.370862    17.185745    -14.568819    -5.944309    -4.528282    3.637972    -5.498342    1.214798    -2.338028    9.152743    -1.442823    -1.357924    -7.547911    -8.364419    0.065802    0.239910    -0.072907    -4.077467    -0.613794    2.847767    4.327042    2.979679    4.638424    -2.796214    -6.640569    -13.875363    -0.443629    0.659106    0.479388    
-0.439046    81.045929    96.951736    -0.697733    -4.956037    -174.858658    -1.212360    -15.082917    0.375813    0.325553    8.245279    0.512889    2.371048    3.682163    -1.008239    9.060417    -12.550299    0.936205    0.874499    18.267500    -3.440754    -42.156399    47.644882    -42.295841    -2.423344    -5.399761    -17.748720    18.370094    -5.212615    3.501667    6.517545    19.902830    -2.910303    37.234661    46.011658    42.226967    0.987517    -6.365974    17.183144    -14.575556    -5.938317    -4.527730    3.620059    -5.442473    1.175985    -2.369096    9.070055    -1.410240    -1.306170    -7.541939    -8.346264    0.068482    0.244578    -0.075877    -4.090168    -0.633561    2.822726    4.294494    3.022661    4.624669    -2.748714    -6.669986    -13.832367    -0.437218    0.656290    0.472462    
-0.509969    81.044411    96.930862    -0.678144    -4.968171    -174.870560    -1.214154    -15.084862    0.380549    0.329730    8.262642    0.517432    2.376387    3.679755    -0.996083    9.101307    -12.900476    0.985229    0.867041    18.258762    -3.446758    -42.144913    47.641998    -42.297588    -2.436042    -5.415004    -17.755053    18.274805    -5.240541    3.454324    6.511453    19.902939    -2.906527    37.224918    46.011505    42.241077    0.981823    -6.361053    17.180410    -14.582103    -5.932295    -4.527437    3.602885    -5.387303    1.137972    -2.399997    8.989093    -1.379390    -1.254619    -7.536230    -8.327430    0.071228    0.248908    -0.078918    -4.102043    -0.652798    2.796890    4.261696    3.065392    4.611038    -2.699092    -6.698956    -13.788436    -0.430731    0.652316    0.465455    
-0.580026    81.042992    96.910355    -0.659170    -4.980637    -174.882187    -1.217205    -15.088162    0.385327    0.336762    8.281375    0.522092    2.378939    3.678306    -0.984537    9.137840    -13.246563    1.032708    0.856580    18.248770    -3.454226    -42.131744    47.639942    -42.298244    -2.449661    -5.433419    -17.762497    18.173254    -5.272517    3.403234    6.504075    19.901747    -2.903749    37.216286    46.011379    42.254280    0.976002    -6.356073    17.177631    -14.588209    -5.926157    -4.527581    3.585535    -5.334048    1.100327    -2.430454    8.910297    -1.349760    -1.203921    -7.530803    -8.308113    0.074024    0.252576    -0.082016    -4.114096    -0.672439    2.769865    4.229064    3.107776    4.598004    -2.653261    -6.726431    -13.744577    -0.424578    0.648459    0.458808    
-0.649539    81.041634    96.889946    -0.639936    -4.992333    -174.893463    -1.220550    -15.091702    0.390280    0.346475    8.301426    0.526840    2.379125    3.678457    -0.973541    9.168591    -13.590771    1.078589    0.843648    18.237675    -3.463545    -42.116985    47.638519    -42.297947    -2.464570    -5.455942    -17.771374    18.061846    -5.309899    3.346635    6.495203    19.899424    -2.901827    37.209038    46.010811    42.266655    0.970264    -6.350873    17.174816    -14.593644    -5.919768    -4.528215    3.569093    -5.281232    1.062693    -2.461212    8.833169    -1.321456    -1.153364    -7.525714    -8.287884    0.076936    0.255700    -0.085242    -4.125100    -0.691170    2.741193    4.195775    3.149481    4.584178    -2.603163    -6.753244    -13.697918    -0.418165    0.642929    0.451881    
-0.718459    81.040359    96.869736    -0.620905    -5.003772    -174.904419    -1.224160    -15.095817    0.395399    0.357921    8.322425    0.531575    2.377702    3.680053    -0.962817    9.191929    -13.931340    1.122309    0.828609    18.225618    -3.473945    -42.100487    47.638157    -42.297089    -2.480742    -5.483224    -17.781607    17.937992    -5.353637    3.282956    6.485373    19.896059    -2.900694    37.203018    46.010315    42.278255    0.964337    -6.345653    17.172037    -14.598376    -5.913292    -4.529303    3.552935    -5.229579    1.024969    -2.491935    8.758148    -1.294298    -1.103217    -7.521198    -8.266864    0.079913    0.258861    -0.088539    -4.135734    -0.709449    2.710944    4.162039    3.190731    4.570201    -2.554136    -6.778991    -13.649959    -0.412010    0.636781    0.445234    
-0.786585    81.039139    96.849785    -0.602318    -5.014932    -174.914932    -1.227216    -15.100058    0.400536    0.368761    8.343178    0.536244    2.376492    3.684077    -0.952016    9.206579    -14.266812    1.163563    0.813330    18.213614    -3.484489    -42.082626    47.638557    -42.296501    -2.498257    -5.515334    -17.793158    17.800173    -5.403950    3.211241    6.475573    19.892399    -2.899627    37.198273    46.009590    42.288795    0.958506    -6.340394    17.169714    -14.602074    -5.906779    -4.530924    3.536685    -5.179444    0.987115    -2.522085    8.685747    -1.268107    -1.053782    -7.517385    -8.245393    0.082996    0.261274    -0.091955    -4.146205    -0.727157    2.679223    4.128241    3.230806    4.555234    -2.504101    -6.803445    -13.599779    -0.405924    0.629547    0.438662    
-0.854514    81.037926    96.829887    -0.583879    -5.025863    -174.925095    -1.229124    -15.104039    0.405515    0.377936    8.363072    0.540919    2.376308    3.690453    -0.940806    9.211938    -14.598704    1.202477    0.798890    18.201788    -3.494564    -42.064117    47.639938    -42.296318    -2.517212    -5.552589    -17.806078    17.645369    -5.461500    3.129601    6.466169    19.888945    -2.898407    37.194176    46.009117    42.298882    0.952509    -6.335283    17.168085    -14.604940    -5.900355    -4.533180    3.520474    -5.130321    0.948486    -2.552316    8.615256    -1.242421    -1.004483    -7.514218    -8.223172    0.086187    0.263577    -0.095490    -4.156512    -0.744328    2.646117    4.094082    3.270215    4.539252    -2.454261    -6.826942    -13.547714    -0.400036    0.621764    0.432303    
-0.922357    81.036697    96.809998    -0.565802    -5.036481    -174.934891    -1.229700    -15.107427    0.410457    0.384498    8.381472    0.545318    2.377923    3.699354    -0.928977    9.207477    -14.926134    1.238936    0.785747    18.190916    -3.503515    -42.044456    47.642090    -42.297417    -2.537464    -5.594878    -17.820490    17.472178    -5.526242    3.037338    6.457713    19.885969    -2.896265    37.190750    46.009041    42.308025    0.946219    -6.330543    17.167229    -14.606832    -5.894229    -4.535923    3.503739    -5.082121    0.909318    -2.582028    8.546788    -1.217231    -0.955456    -7.511774    -8.200496    0.089530    0.265638    -0.099194    -4.167046    -0.760947    2.611931    4.059728    3.309330    4.522588    -2.402079    -6.850183    -13.494156    -0.394155    0.612815    0.425953    
-0.989682    81.035446    96.790329    -0.548218    -5.047120    -174.944244    -1.228844    -15.110245    0.415043    0.387931    8.397779    0.549542    2.381182    3.710482    -0.916559    9.193965    -15.245898    1.272731    0.774488    18.180923    -3.510883    -42.024551    47.645233    -42.299347    -2.558334    -5.641406    -17.836533    17.280869    -5.597042    2.935052    6.450465    19.883814    -2.893296    37.187656    46.009338    42.316631    0.939754    -6.326061    17.167274    -14.607954    -5.888328    -4.539031    3.486634    -5.035722    0.869676    -2.611260    8.481012    -1.192657    -0.906935    -7.510121    -8.177318    0.093097    0.267052    -0.103145    -4.177949    -0.777359    2.577396    4.025861    3.347640    4.505505    -2.352751    -6.872216    -13.440874    -0.388720    0.603771    0.420085    
-1.057310    81.034126    96.770493    -0.530286    -5.057099    -174.953217    -1.226008    -15.111969    0.419364    0.388500    8.412407    0.553479    2.385715    3.723395    -0.903408    9.171770    -15.560740    1.304331    0.764627    18.172306    -3.516368    -42.003239    47.648830    -42.303043    -2.579863    -5.692044    -17.854822    17.068909    -5.673920    2.821627    6.444026    19.882305    -2.889031    37.185101    46.010269    42.324596    0.932807    -6.321901    17.168198    -14.608122    -5.882710    -4.542321    3.469749    -4.989594    0.829491    -2.640559    8.416850    -1.168791    -0.858111    -7.509165    -8.153238    0.097054    0.268141    -0.107529    -4.188667    -0.792905    2.542854    3.992013    3.385999    4.488851    -2.302144    -6.894273    -13.388524    -0.383366    0.594274    0.414304    
-1.124995    81.032753    96.750732    -0.512835    -5.067454    -174.961884    -1.222033    -15.113349    0.423396    0.386235    8.424932    0.557081    2.390973    3.737715    -0.889680    9.141916    -15.867591    1.333628    0.756090    18.164824    -3.519973    -41.981079    47.653069    -42.307812    -2.601410    -5.745620    -17.875961    16.838381    -5.755273    2.698626    6.438410    19.881821    -2.883426    37.182785    46.011826    42.332306    0.925166    -6.318165    17.169880    -14.607081    -5.877452    -4.545527    3.452142    -4.945183    0.788880    -2.669566    8.354829    -1.145248    -0.809285    -7.508904    -8.128626    0.101450    0.268840    -0.112399    -4.200437    -0.808747    2.509008    3.959223    3.424269    4.473736    -2.250985    -6.916090    -13.339032    -0.378160    0.584128    0.408684    
